<?xml version="1.0" encoding="utf-8"?>
<!-- Generator: Adobe Illustrator 18.0.0, SVG Export Plug-In . SVG Version: 6.00 Build 0)  -->
<!DOCTYPE svg PUBLIC "-//W3C//DTD SVG 1.1//EN" "http://www.w3.org/Graphics/SVG/1.1/DTD/svg11.dtd">
<svg version="1.1" id="Layer_1" xmlns="http://www.w3.org/2000/svg" xmlns:xlink="http://www.w3.org/1999/xlink" x="0px" y="0px"
	 viewBox="0 0 800 600" enable-background="new 0 0 800 600" xml:space="preserve">
<symbol  id="Shopping_Cart" viewBox="-37 -31.5 70.5 63">
	<path fill="#CC3333" d="M30-10h-49.3v2.4l45.2,6c2.4,0.4,4.1,2.3,4.2,4.7V18c0,2.5-2,4.5-4.5,4.5h-44.9V26c0,3-2.5,5.5-5.5,5.5
		h-8.7c-1.9,0-3.5-1.6-3.5-3.5s1.6-3.5,3.5-3.5h7.2v-36c0-3,2.5-5.5,5.5-5.5H30c1.9,0,3.5,1.6,3.5,3.5C33.4-11.6,31.9-10,30-10z
		 M0.4,0.1L-8.2-1v18.6h8.6C0.4,17.6,0.4,0.1,0.4,0.1z M4.4,17.6H13V1.7L4.4,0.6V17.6z M25.1,3.3L17,2.2v15.3h8.1V3.3z M-12.2,17.6
		V-1.6l-7.1-0.9v20.1H-12.2z"/>
	<path fill="#CC3333" d="M-8.6-31.5c3.8,0,6.9,3.1,6.9,6.9s-3.1,6.9-6.9,6.9s-6.9-3.1-6.9-6.9S-12.5-31.5-8.6-31.5z"/>
	<path fill="#CC3333" d="M24.8-31.5c3.8,0,6.9,3.1,6.9,6.9s-3.1,6.9-6.9,6.9s-6.9-3.1-6.9-6.9S20.9-31.5,24.8-31.5z"/>
</symbol>
<use xlink:href="#Shopping_Cart"  width="70.5" height="63" id="XMLID_3_" x="-37" y="-31.5" transform="matrix(9.5207 0 0 -9.5207 400.9538 299.9121)" overflow="visible"/>
</svg>
